<svg width="53.915" height="64" version="1.1" viewBox="0 0 56.838 67.733" xmlns="http://www.w3.org/2000/svg"><g transform="translate(-5.3364 -229.27)"><g transform="matrix(1.0208 0 0 1.0208 90.821 -6.2548)"><g transform="matrix(2.0711 0 0 2.0711 -98.367 220.36)" data-hydro-click='{"event_type":"user_profile.click","payload":{"profile_user_id":5177040,"target":"CONTRIBUTION_CALENDAR_SQUARE","user_id":5177040,"originating_url":"https://github.com/users/TheFoxarmy/contributions?from=2020-10-01&amp;to=2020-10-25"}}' data-hydro-click-hmac="299070e90eba002e2c066378c7e6bbc64325ff36a81c7e1a8c1511f4b1ba0ed7"><g transform="translate(5,5)"><rect class="day" x="2" width="11" height="11" fill="#40c463" data-count="2" data-date="2020-10-16"/><rect class="day" x="2" y="15" width="11" height="11" fill="#9be9a8" data-count="1" data-date="2020-10-17"/></g><g transform="translate(21,5)"><rect class="day" x="1" width="11" height="11" fill="#216e39" data-count="6" data-date="2020-10-23"/><rect class="day" x="1" y="15" width="11" height="11" fill="#ebedf0" data-count="3" data-date="2020-10-24"/></g></g><path d="m-46.084 265.31c0.60916-3.0437 0.1975-6.0643-3.4498-8.693-0.416-0.29975-0.58441-0.79606-0.45289-1.2875 0.22224-0.82857 2.972-2.8374 3.6659-3.434-6.1417-1.6449-12.298-0.26241-14.097 6.4547-1.5159 5.6574 0.70642 10.421 6.4057 11.948 0.23205 0.0622 0.46643 0.0734 0.70022 0.11025zm17.257 27.874c0.30302-1.1306 0.08642-2.3244-0.42347-3.3275-9.5331-18.893-9.428-20.565-13.437-21.639-1.0217-0.27362-2.0608-0.29228-3.0606-0.1223l-5.2413 3.6969c-0.27873 0.50167-0.51854 1.0313-0.67336 1.6092-1.2412 4.6321 1.4305 8.2255 14.907 20.873 0.92274 0.83716 1.9484 1.6331 3.1521 1.9557 2.156 0.57773 4.2149-0.94888 4.7766-3.0453z" fill="currentColor" stroke="#fff" stroke-width="1.4265"/></g></g></svg>
